<?xml version="1.0" encoding="utf-8"?>
<!-- Generator: Adobe Illustrator 26.0.3, SVG Export Plug-In . SVG Version: 6.00 Build 0)  -->
<svg version="1.0" id="katman_1" xmlns="http://www.w3.org/2000/svg" xmlns:xlink="http://www.w3.org/1999/xlink" x="0px" y="0px"
	 viewBox="0 0 110 80" style="enable-background:new 0 0 110 80;" xml:space="preserve">
<style type="text/css">
	.st0{fill:#FF5533;}
</style>
<path class="st0" d="M41.4,36.3c-0.9,0-1.6,0.7-1.6,1.6s0.7,1.6,1.6,1.6c0.9,0,1.6-0.7,1.6-1.6S42.3,36.3,41.4,36.3z M50.3,28.6
	h-5.5V26h4.9v-2.6h-4.9v-2.6h5.4v-2.7h-8.3v13.2h8.4V28.6z M44.1,36.6c0.9,0,1.6-0.7,1.6-1.6s-0.7-1.6-1.6-1.6
	c-0.9,0-1.6,0.7-1.6,1.6S43.3,36.6,44.1,36.6z M32.6,31.6c1.9,0,3.6-1,4.6-2.5v2.2h2.6V24h-7v2.5h2.9c-0.3,1.4-1.5,2.4-2.9,2.4
	c-1.6,0-2.9-1.3-2.9-3.2v-1.9c0-1.9,1.4-3.2,3.3-3.2c1.5,0,2.9,0.8,3.3,2l2.7-1c-0.8-2.3-3.2-3.8-6-3.8c-3.6,0-6.2,2.4-6.2,5.9v1.9
	C27.1,29.1,29.6,31.6,32.6,31.6z M58,21.8h-2.9V26H58C58,26,58,21.8,58,21.8z M61.5,18.1h-10v2.7h10V18.1z M32,46.6h3v-5l5-8.2h-3.3
	l-3.1,5.4l-3.1-5.4H27l5,8.2V46.6z M58,27.1h-2.9v4.2H58C58,31.3,58,27.1,58,27.1z M80.5,46.6l-3.6-5c1.7-0.5,3-2.1,3-3.9
	c0-2.4-2-4.2-4.5-4.2h-1.7v2.7h1.6c0.9,0,1.5,0.7,1.5,1.6c0,0.9-0.7,1.6-1.5,1.6h-1.6v2.5l3.2,4.8H80.5z M65.8,48.7h-4.3v13.2h4.3
	c4.1,0,7-2.8,7-6.6C72.8,51.5,69.9,48.7,65.8,48.7z M66.1,59.2h-1.6v-7.9h1.6c2.2,0,3.7,1.7,3.7,3.9S68.3,59.2,66.1,59.2z
	 M77.5,56.6h4.9v-2.6h-4.9v-2.6h5.4v-2.6h-8.3v13.2H83v-2.7h-5.5V56.6z M72.8,42.1L71.3,40l1.5-2.2l-1.5-2.2l1.5-2.2l-3,0l-1.5,2.2
	l1.5,2.2L68.2,40l1.5,2.2l-1.5,2.2l1.6,2.3H73l-1.7-2.3L72.8,42.1z M66.1,41.5v-8h-2.9v8.1c0,1.5-1.1,2.6-2.6,2.6
	c-1.5,0-2.6-1.1-2.6-2.6v-8.1h-2.9v8c0,3.1,2.3,5.4,5.5,5.4C63.7,46.9,66.1,44.6,66.1,41.5z M49.9,56.8c0,1.5-1.1,2.6-2.6,2.6
	c-1.5,0-2.6-1.1-2.6-2.6v-8.1h-2.9v8c0,3.1,2.3,5.4,5.5,5.4c3.2,0,5.5-2.3,5.5-5.4v-8h-2.9V56.8z M32.9,57.1h2.9
	c-0.3,1.4-1.5,2.4-2.9,2.4c-1.6,0-2.9-1.3-2.9-3.2v-1.9c0-1.9,1.4-3.2,3.3-3.2c1.5,0,2.9,0.8,3.3,2l2.7-1c-0.8-2.3-3.2-3.8-6-3.8
	c-3.6,0-6.2,2.4-6.2,5.9v1.9c0,3.4,2.5,5.9,5.6,5.9c1.9,0,3.6-1,4.6-2.5v2.2h2.6v-7.3h-7C32.9,54.5,32.9,57.1,32.9,57.1z"/>
<path class="st0" d="M46.4,33.1v2.8c2.2,0,3.9,1.8,3.9,4.1s-1.7,4.1-3.9,4.1c-2.2,0-3.9-1.8-3.9-4.1h-3c0,3.8,3.1,6.9,6.9,6.9
	c3.8,0,6.9-3,6.9-6.9C53.3,36.2,50.2,33.1,46.4,33.1z M58.5,54.9c0.4-0.4,1.2-1.1,1.2-2.3c0-1.2-0.7-1.9-1.2-2.3c0,0,0,0-0.1,0
	c-0.2-0.2-0.3-0.6-0.3-0.7v-0.9h-3v1.2h0c0,0,0,0,0,0c0,1.2,0.7,1.9,1.2,2.3c0.3,0.3,0.3,0.3,0.3,0.4c0,0.1,0,0.1-0.3,0.4
	c-0.4,0.4-1.1,1-1.2,2.1h0c0,0,0,0,0,0.1c0,0,0,0,0,0c0,0,0,0,0,0c0,0,0,0,0,0.1h0c0.1,1.1,0.7,1.8,1.2,2.1c0.3,0.3,0.3,0.3,0.3,0.4
	c0,0.1,0,0.1-0.3,0.4c-0.4,0.4-1.2,1.1-1.2,2.3c0,0,0,0,0,0h0v1.2h3v-0.9c0-0.2,0-0.5,0.3-0.7c0,0,0,0,0.1,0
	c0.4-0.4,1.2-1.1,1.2-2.3c0-1.2-0.7-1.9-1.2-2.3c-0.3-0.3-0.3-0.3-0.3-0.4C58.1,55.2,58.2,55.1,58.5,54.9z"/>
</svg>
